<svg width="100" height="100" viewBox="0 0 100 100" fill="none" xmlns="http://www.w3.org/2000/svg">
  <circle cx="50" cy="50" r="50" fill="#EAB308"/>
  <path d="M50 20C33.4315 20 20 33.4315 20 50C20 66.5685 33.4315 80 50 80C66.5685 80 80 66.5685 80 50C80 33.4315 66.5685 20 50 20ZM50 75C35.6406 75 25 64.3594 25 50C25 35.6406 35.6406 25 50 25C64.3594 25 75 35.6406 75 50C75 64.3594 64.3594 75 50 75Z" fill="black"/>
  <path d="M50 30C38.9543 30 30 38.9543 30 50C30 61.0457 38.9543 70 50 70C61.0457 70 70 61.0457 70 50C70 38.9543 61.0457 30 50 30ZM50 65C41.7157 65 35 58.2843 35 50C35 41.7157 41.7157 35 50 35C58.2843 35 65 41.7157 65 50C65 58.2843 58.2843 65 50 65Z" fill="black"/>
  <path d="M50 40C44.4772 40 40 44.4772 40 50C40 55.5228 44.4772 60 50 60C55.5228 60 60 55.5228 60 50C60 44.4772 55.5228 40 50 40ZM50 55C47.2386 55 45 52.7614 45 50C45 47.2386 47.2386 45 50 45C52.7614 45 55 47.2386 55 50C55 52.7614 52.7614 55 50 55Z" fill="black"/>
  <circle cx="50" cy="50" r="5" fill="black"/>
</svg> 